REM DIRINDEX 1\2\4,1\2\5,1\2\6,1\3\7,1\3\8,1\3\9,1\3\10
REM DIRNAME cjc057,folder01,folder02,folder03,folder04,folder05,folder06,folder07,folder08,folder09
TITLE ""
FILE "b_227.mp3" MP3
  TRACK 01 AUDIO
    TITLE "0:"
    INDEX 01 00:00:00
  TRACK 02 AUDIO
    TITLE "7:cjc057_10742"
    INDEX 01 00:00:15
  TRACK 03 AUDIO
    TITLE "0:"
    INDEX 01 00:01:36
  TRACK 04 AUDIO
    TITLE "8:cjc057_10743"
    INDEX 01 00:01:66
  TRACK 05 AUDIO
    TITLE "0:"
    INDEX 01 00:02:73
  TRACK 06 AUDIO
    TITLE "9:cjc057_10744"
    INDEX 01 00:03:39
  TRACK 07 AUDIO
    TITLE "0:"
    INDEX 01 00:07:03
  TRACK 08 AUDIO
    TITLE "7:cjc057_10745"
    INDEX 01 00:08:07
  TRACK 09 AUDIO
    TITLE "0:"
    INDEX 01 00:09:63
  TRACK 10 AUDIO
    TITLE "8:cjc057_10746"
    INDEX 01 00:10:18
  TRACK 11 AUDIO
    TITLE "0:"
    INDEX 01 00:12:05
  TRACK 12 AUDIO
    TITLE "9:cjc057_10747"
    INDEX 01 00:12:44
  TRACK 13 AUDIO
    TITLE "0:"
    INDEX 01 00:16:40
  TRACK 14 AUDIO
    TITLE "7:cjc057_10748"
    INDEX 01 00:17:45
  TRACK 15 AUDIO
    TITLE "0:"
    INDEX 01 00:19:05
  TRACK 16 AUDIO
    TITLE "8:cjc057_10749"
    INDEX 01 00:19:32
  TRACK 17 AUDIO
    TITLE "0:"
    INDEX 01 00:20:65
  TRACK 18 AUDIO
    TITLE "9:cjc057_10750"
    INDEX 01 00:21:33
  TRACK 19 AUDIO
    TITLE "0:"
    INDEX 01 00:25:35
  TRACK 20 AUDIO
    TITLE "7:cjc057_10751"
    INDEX 01 00:26:44
  TRACK 21 AUDIO
    TITLE "0:"
    INDEX 01 00:27:71
  TRACK 22 AUDIO
    TITLE "8:cjc057_10752"
    INDEX 01 00:28:25
  TRACK 23 AUDIO
    TITLE "0:"
    INDEX 01 00:31:16
  TRACK 24 AUDIO
    TITLE "9:cjc057_10753"
    INDEX 01 00:31:57
  TRACK 25 AUDIO
    TITLE "0:"
    INDEX 01 00:34:57
  TRACK 26 AUDIO
    TITLE "7:cjc057_10754"
    INDEX 01 00:35:61
  TRACK 27 AUDIO
    TITLE "0:"
    INDEX 01 00:37:10
  TRACK 28 AUDIO
    TITLE "8:cjc057_10755"
    INDEX 01 00:37:40
  TRACK 29 AUDIO
    TITLE "0:"
    INDEX 01 00:38:53
  TRACK 30 AUDIO
    TITLE "9:cjc057_10756"
    INDEX 01 00:39:19
  TRACK 31 AUDIO
    TITLE "0:"
    INDEX 01 00:42:55
  TRACK 32 AUDIO
    TITLE "7:cjc057_10757"
    INDEX 01 00:43:58
  TRACK 33 AUDIO
    TITLE "0:"
    INDEX 01 00:44:63
  TRACK 34 AUDIO
    TITLE "8:cjc057_10758"
    INDEX 01 00:45:18
  TRACK 35 AUDIO
    TITLE "0:"
    INDEX 01 00:47:40
  TRACK 36 AUDIO
    TITLE "9:cjc057_10759"
    INDEX 01 00:48:04
  TRACK 37 AUDIO
    TITLE "0:"
    INDEX 01 00:51:56
  TRACK 38 AUDIO
    TITLE "7:cjc057_10760"
    INDEX 01 00:52:59
  TRACK 39 AUDIO
    TITLE "0:"
    INDEX 01 00:54:05
  TRACK 40 AUDIO
    TITLE "8:cjc057_10761"
    INDEX 01 00:54:36
  TRACK 41 AUDIO
    TITLE "0:"
    INDEX 01 00:55:69
  TRACK 42 AUDIO
    TITLE "9:cjc057_10762"
    INDEX 01 00:56:37
  TRACK 43 AUDIO
    TITLE "0:"
    INDEX 01 01:00:29
  TRACK 44 AUDIO
    TITLE "7:cjc057_10763"
    INDEX 01 01:01:34
  TRACK 45 AUDIO
    TITLE "0:"
    INDEX 01 01:02:63
  TRACK 46 AUDIO
    TITLE "8:cjc057_10764"
    INDEX 01 01:03:18
  TRACK 47 AUDIO
    TITLE "0:"
    INDEX 01 01:04:41
  TRACK 48 AUDIO
    TITLE "9:cjc057_10765"
    INDEX 01 01:05:09
  TRACK 49 AUDIO
    TITLE "0:"
    INDEX 01 01:08:03
  TRACK 50 AUDIO
    TITLE "7:cjc057_10766"
    INDEX 01 01:09:07
  TRACK 51 AUDIO
    TITLE "0:"
    INDEX 01 01:10:39
  TRACK 52 AUDIO
    TITLE "8:cjc057_10767"
    INDEX 01 01:10:69
  TRACK 53 AUDIO
    TITLE "0:"
    INDEX 01 01:13:20
  TRACK 54 AUDIO
    TITLE "9:cjc057_10768"
    INDEX 01 01:13:61
  TRACK 55 AUDIO
    TITLE "0:"
    INDEX 01 01:16:44
  TRACK 56 AUDIO
    TITLE "7:cjc057_10769"
    INDEX 01 01:17:49
  TRACK 57 AUDIO
    TITLE "0:"
    INDEX 01 01:18:64
  TRACK 58 AUDIO
    TITLE "8:cjc057_10770"
    INDEX 01 01:19:17
  TRACK 59 AUDIO
    TITLE "0:"
    INDEX 01 01:21:08
  TRACK 60 AUDIO
    TITLE "9:cjc057_10771"
    INDEX 01 01:21:51
  TRACK 61 AUDIO
    TITLE "0:"
    INDEX 01 01:23:71
  TRACK 62 AUDIO
    TITLE "7:cjc057_10772"
    INDEX 01 01:25:02
  TRACK 63 AUDIO
    TITLE "0:"
    INDEX 01 01:26:17
  TRACK 64 AUDIO
    TITLE "8:cjc057_10773"
    INDEX 01 01:26:46
  TRACK 65 AUDIO
    TITLE "0:"
    INDEX 01 01:28:41
  TRACK 66 AUDIO
    TITLE "9:cjc057_10774"
    INDEX 01 01:29:05
  TRACK 67 AUDIO
    TITLE "0:"
    INDEX 01 01:31:34
  TRACK 68 AUDIO
    TITLE "7:cjc057_10775"
    INDEX 01 01:32:41
  TRACK 69 AUDIO
    TITLE "0:"
    INDEX 01 01:33:48
  TRACK 70 AUDIO
    TITLE "8:cjc057_10776"
    INDEX 01 01:34:03
  TRACK 71 AUDIO
    TITLE "0:"
    INDEX 01 01:36:37
  TRACK 72 AUDIO
    TITLE "9:cjc057_10777"
    INDEX 01 01:37:01
  TRACK 73 AUDIO
    TITLE "0:"
    INDEX 01 01:39:72
  TRACK 74 AUDIO
    TITLE "7:cjc057_10778"
    INDEX 01 01:41:03
  TRACK 75 AUDIO
    TITLE "0:"
    INDEX 01 01:42:16
  TRACK 76 AUDIO
    TITLE "8:cjc057_10779"
    INDEX 01 01:42:43
  TRACK 77 AUDIO
    TITLE "0:"
    INDEX 01 01:43:70
  TRACK 78 AUDIO
    TITLE "9:cjc057_10780"
    INDEX 01 01:44:38
  TRACK 79 AUDIO
    TITLE "0:"
    INDEX 01 01:47:01
  TRACK 80 AUDIO
    TITLE "7:cjc057_10781"
    INDEX 01 01:48:05
  TRACK 81 AUDIO
    TITLE "0:"
    INDEX 01 01:49:43
  TRACK 82 AUDIO
    TITLE "8:cjc057_10782"
    INDEX 01 01:49:71
  TRACK 83 AUDIO
    TITLE "0:"
    INDEX 01 01:51:62
  TRACK 84 AUDIO
    TITLE "9:cjc057_10783"
    INDEX 01 01:52:26
  TRACK 85 AUDIO
    TITLE "0:"
    INDEX 01 01:55:13
